<svg width="20" height="20" viewBox="0 0 20 20" fill="none" xmlns="http://www.w3.org/2000/svg">
<path fill-rule="evenodd" clip-rule="evenodd" d="M8.88835 0.499999C8.88835 0.223857 9.1122 0 9.38835 0H10.6106C10.8867 0 11.1106 0.223858 11.1106 0.5V9.36554C11.1109 9.37332 11.1111 9.38115 11.1111 9.38902V10.6112C11.1111 10.8874 10.8873 11.1112 10.6111 11.1112H0.499999C0.223857 11.1112 0 10.8874 0 10.6112V9.38902C0 9.11288 0.223858 8.88902 0.5 8.88902H8.88835V0.499999ZM14.545 0.111247C13.9375 0.111247 13.445 0.603732 13.445 1.21125V5.45569C13.445 6.0632 13.9375 6.55569 14.545 6.55569H18.7894C19.3969 6.55569 19.8894 6.06321 19.8894 5.45569V1.21125C19.8894 0.603735 19.3969 0.111247 18.7894 0.111247H14.545ZM15.445 4.55569V2.11125H17.8894V4.55569H15.445ZM1.21165 13.4446C0.604142 13.4446 0.111654 13.9371 0.111654 14.5446V18.789C0.111654 19.3965 0.604139 19.889 1.21165 19.889H5.4561C6.06361 19.889 6.5561 19.3965 6.5561 18.789V14.5446C6.5561 13.9371 6.06361 13.4446 5.4561 13.4446H1.21165ZM2.11165 17.889V15.4446H4.5561V17.889H2.11165ZM0.111654 1.21125C0.111654 0.603732 0.604142 0.111247 1.21165 0.111247H5.4561C6.06361 0.111247 6.5561 0.603735 6.5561 1.21125V5.45569C6.5561 6.06321 6.06361 6.55569 5.4561 6.55569H1.21165C0.604139 6.55569 0.111654 6.0632 0.111654 5.45569V1.21125ZM2.11165 2.11125V4.55569H4.5561V2.11125H2.11165ZM9.38835 13.3333C9.1122 13.3333 8.88835 13.5572 8.88835 13.8333V19.5C8.88835 19.7761 9.1122 20 9.38835 20H10.6106C10.8867 20 11.1106 19.7761 11.1106 19.5V13.8333C11.1106 13.5572 10.8867 13.3333 10.6106 13.3333H9.38835ZM13.8333 8.88875C13.5572 8.88875 13.3333 9.11261 13.3333 9.38875V9.38902V10.6112V15.0554C13.3333 15.3316 13.5572 15.5554 13.8333 15.5554H15.0556C15.3317 15.5554 15.5556 15.3316 15.5556 15.0554V11.1112H19.5C19.7761 11.1112 20 10.8874 20 10.6112V9.38902C20 9.11288 19.7761 8.88902 19.5 8.88902H15.0722L15.0556 8.88875H13.8333ZM17.7783 13.8333C17.7783 13.5572 18.0022 13.3333 18.2783 13.3333H19.5005C19.7767 13.3333 20.0005 13.5572 20.0005 13.8333V19.5C20.0005 19.7761 19.7767 20 19.5005 20H19.5H18.2783H13.8333C13.5572 20 13.3333 19.7761 13.3333 19.5V18.2778C13.3333 18.0016 13.5572 17.7778 13.8333 17.7778H17.7783V13.8333Z" fill="black"/>
</svg>
