<svg width="32" height="32" viewBox="0 0 32 32" fill="none" xmlns="http://www.w3.org/2000/svg">
<path d="M15.5 6C9.70101 6 5 10.701 5 16.5C5 22.299 9.70101 27 15.5 27C21.299 27 26 22.299 26 16.5C26 10.701 21.299 6 15.5 6ZM15.5 8C20.1944 8 24 11.8056 24 16.5C24 21.1944 20.1944 25 15.5 25C10.8056 25 7 21.1944 7 16.5C7 11.8056 10.8056 8 15.5 8ZM16.592 21.1169C16.653 20.9779 16.683 20.8259 16.683 20.6669C16.683 20.5089 16.653 20.3569 16.592 20.2179C16.531 20.0779 16.446 19.9549 16.339 19.8519C16.233 19.7499 16.109 19.6679 15.97 19.6079C15.828 19.5469 15.673 19.5159 15.507 19.5159C15.173 19.5159 14.888 19.6299 14.66 19.8529C14.432 20.0759 14.317 20.3499 14.317 20.6669C14.317 20.9849 14.432 21.2589 14.66 21.4819C14.888 21.7049 15.173 21.8189 15.507 21.8189C15.673 21.8189 15.829 21.7879 15.969 21.7269C16.109 21.6669 16.233 21.5849 16.339 21.4829C16.447 21.3789 16.532 21.2559 16.592 21.1169ZM14.5246 11.5082V18.4252H16.4886V11.5082H14.5246Z" fill="black"/>
</svg>
