<svg width="32" height="32" viewBox="0 0 32 32" fill="none" xmlns="http://www.w3.org/2000/svg">
<path d="M3 7.83671V12.5625H5.60013V8.625H9.50032V6H4.82009C4.33765 6.00049 3.87511 6.19413 3.5339 6.53845C3.19269 6.88277 3.00069 7.34966 3 7.83671Z" fill="black"/>
<path d="M29 7.83671C28.9993 7.34966 28.8073 6.88277 28.4661 6.53845C28.1249 6.19413 27.6623 6.00049 27.1799 6H22.4997V8.625H26.3999V12.5625H29V7.83671Z" fill="black"/>
<path d="M26.3999 20.4375H29V25.1625C28.9995 25.6497 28.8075 26.1167 28.4663 26.4612C28.1251 26.8057 27.6625 26.9994 27.1799 27H22.4997V24.375H26.3999V20.4375Z" fill="black"/>
<path d="M3 25.1625C3.00055 25.6497 3.19249 26.1167 3.5337 26.4612C3.87491 26.8057 4.33754 26.9994 4.82009 27H9.50032V24.375H5.60013V20.4375H3V25.1625Z" fill="black"/>
<path d="M8.19644 11.2462H10.7966V21.7462H8.19644V11.2462Z" fill="black"/>
<path d="M17.2982 11.2462H14.698V21.7462H17.2982V11.2462Z" fill="black"/>
<path d="M21.1971 11.2462H23.7972V21.7462H21.1971V11.2462Z" fill="black"/>
<path d="M13.3975 11.2466H12.0974V21.7466H13.3975V11.2466Z" fill="black"/>
<path d="M18.5995 11.2466H19.8996V21.7466H18.5995V11.2466Z" fill="black"/>
</svg>
