<svg width="32" height="32" viewBox="0 0 32 32" fill="none" xmlns="http://www.w3.org/2000/svg">
<path fill-rule="evenodd" clip-rule="evenodd" d="M14.8883 6.5C14.8883 6.22386 15.1122 6 15.3883 6H16.6106C16.8867 6 17.1106 6.22386 17.1106 6.5V15.3655C17.1109 15.3733 17.1111 15.3812 17.1111 15.389V16.6112C17.1111 16.8874 16.8873 17.1112 16.6111 17.1112H6.5C6.22386 17.1112 6 16.8874 6 16.6112V15.389C6 15.1129 6.22386 14.889 6.5 14.889H14.8883V6.5ZM20.545 6.11125C19.9375 6.11125 19.445 6.60373 19.445 7.21125V11.4557C19.445 12.0632 19.9375 12.5557 20.545 12.5557H24.7894C25.3969 12.5557 25.8894 12.0632 25.8894 11.4557V7.21125C25.8894 6.60373 25.3969 6.11125 24.7894 6.11125H20.545ZM21.445 10.5557V8.11125H23.8894V10.5557H21.445ZM7.21165 19.4446C6.60414 19.4446 6.11165 19.9371 6.11165 20.5446V24.789C6.11165 25.3965 6.60414 25.889 7.21165 25.889H11.4561C12.0636 25.889 12.5561 25.3965 12.5561 24.789V20.5446C12.5561 19.9371 12.0636 19.4446 11.4561 19.4446H7.21165ZM8.11165 23.889V21.4446H10.5561V23.889H8.11165ZM6.11165 7.21125C6.11165 6.60373 6.60414 6.11125 7.21165 6.11125H11.4561C12.0636 6.11125 12.5561 6.60373 12.5561 7.21125V11.4557C12.5561 12.0632 12.0636 12.5557 11.4561 12.5557H7.21165C6.60414 12.5557 6.11165 12.0632 6.11165 11.4557V7.21125ZM8.11165 8.11125V10.5557H10.5561V8.11125H8.11165ZM15.3883 19.3333C15.1122 19.3333 14.8883 19.5572 14.8883 19.8333V25.5C14.8883 25.7761 15.1122 26 15.3883 26H16.6106C16.8867 26 17.1106 25.7761 17.1106 25.5V19.8333C17.1106 19.5572 16.8867 19.3333 16.6106 19.3333H15.3883ZM19.8333 14.8888C19.5572 14.8888 19.3333 15.1126 19.3333 15.3888V15.389V16.6112V21.0554C19.3333 21.3316 19.5572 21.5554 19.8333 21.5554H21.0556C21.3317 21.5554 21.5556 21.3316 21.5556 21.0554V17.1112H25.5C25.7761 17.1112 26 16.8874 26 16.6112V15.389C26 15.1129 25.7761 14.889 25.5 14.889H21.0722L21.0556 14.8888H19.8333ZM23.7783 19.8333C23.7783 19.5572 24.0022 19.3333 24.2783 19.3333H25.5005C25.7767 19.3333 26.0005 19.5572 26.0005 19.8333V25.5C26.0005 25.7761 25.7767 26 25.5005 26H25.5H24.2783H19.8333C19.5572 26 19.3333 25.7761 19.3333 25.5V24.2778C19.3333 24.0016 19.5572 23.7778 19.8333 23.7778H23.7783V19.8333Z" fill="black"/>
</svg>
