<svg width="32" height="32" viewBox="0 0 32 32" fill="none" xmlns="http://www.w3.org/2000/svg">
<path fill-rule="evenodd" clip-rule="evenodd" d="M26.2631 0.714456L31.2424 0.161194L30.6892 5.14055C30.1776 9.74448 28.1144 14.0372 24.8389 17.3127L21.4075 20.7615C22.6293 21.9832 22.8188 23.8975 21.8604 25.3351L18.9788 29.6575C18.2787 30.7076 16.7929 30.8547 15.9005 29.9623L13.9035 27.9653L14.4692 24.0055L7.39813 16.9344L3.43833 17.5001L1.44135 15.5031C0.548916 14.6107 0.696043 13.1249 1.74617 12.4248L6.06858 9.54321C7.50617 8.58482 9.4204 8.77436 10.6421 9.99609L14.0909 6.56471C17.3664 3.28921 21.6591 1.226 26.2631 0.714456ZM28.3038 4.87552L28.5258 2.87781L26.5281 3.09978C22.4658 3.55114 18.6781 5.37161 15.788 8.26176L12.3566 11.6931C11.4145 12.6352 9.88713 12.6352 8.94507 11.6931C8.5323 11.2804 7.88556 11.2163 7.39986 11.5401L3.48342 14.1511L4.28686 14.9545L8.24666 14.3888L17.0148 23.157L16.4491 27.1168L17.2525 27.9202L19.8635 24.0038C20.1873 23.5181 20.1233 22.8713 19.7105 22.4586C18.7684 21.5165 18.7684 19.9891 19.7105 19.0471L23.1419 15.6157C26.032 12.7255 27.8525 8.93781 28.3038 4.87552Z" fill="black"/>
<path d="M7.07116 19.8542L4.28971 27.1613L11.5969 24.3794L7.07116 19.8542Z" fill="black"/>
</svg>
