<svg width="36" height="30" viewBox="0 0 36 30" fill="none" xmlns="http://www.w3.org/2000/svg">
<path d="M30 7.5H25.5V10.5H30V7.5Z" fill="black"/>
<path d="M6 13.5H10.5V16.5H6V13.5Z" fill="black"/>
<path d="M24 22.5V19.5H12V22.5H24Z" fill="black"/>
<path d="M16.5 13.5H12V16.5H16.5V13.5Z" fill="black"/>
<path d="M22.5 13.5H18V16.5H22.5V13.5Z" fill="black"/>
<path d="M30 13.5H24V16.5H30V13.5Z" fill="black"/>
<path d="M18 7.5H13.5V10.5H18V7.5Z" fill="black"/>
<path d="M12 7.5H6V10.5H12V7.5Z" fill="black"/>
<path d="M24 7.5H19.5V10.5H24V7.5Z" fill="black"/>
<path fill-rule="evenodd" clip-rule="evenodd" d="M23.25 0C28.1602 0 30.6152 0 32.4188 1.10522C33.4279 1.72357 34.2764 2.57208 34.8948 3.58118C36 5.38477 36 7.83984 36 12.75V17.25C36 22.1602 36 24.6152 34.8948 26.4188C34.2764 27.4279 33.4279 28.2764 32.4188 28.8948C30.6152 30 28.1602 30 23.25 30H12.75C7.83984 30 5.38477 30 3.58118 28.8948C2.57208 28.2764 1.72357 27.4279 1.10522 26.4188C0 24.6152 0 22.1602 0 17.25V12.75C0 7.83984 0 5.38477 1.10522 3.58118C1.72357 2.57208 2.57208 1.72357 3.58118 1.10522C5.38477 0 7.83984 0 12.75 0H23.25ZM33 12.75V17.25C33 19.7631 32.9969 21.4374 32.8753 22.7153C32.7581 23.9487 32.5521 24.5001 32.3368 24.8513C31.9658 25.4568 31.4568 25.9658 30.8513 26.3368C30.5001 26.5521 29.9487 26.7581 28.7153 26.8753C27.4374 26.9969 25.7631 27 23.25 27H12.75C10.2369 27 8.56256 26.9969 7.28467 26.8753C6.05127 26.7581 5.49994 26.5521 5.14874 26.3368C4.54321 25.9658 4.03418 25.4568 3.66321 24.8513C3.44788 24.5001 3.24188 23.9487 3.12469 22.7153C3.00311 21.4374 3 19.7631 3 17.25V12.75C3 10.2369 3.00311 8.56256 3.12469 7.28467C3.24188 6.05127 3.44788 5.49994 3.66321 5.14874C4.03418 4.54321 4.54321 4.03418 5.14874 3.66321C5.49994 3.44788 6.05127 3.24188 7.28467 3.12469C8.56256 3.00311 10.2369 3 12.75 3H23.25C25.7631 3 27.4374 3.00311 28.7153 3.12469C29.9487 3.24188 30.5001 3.44788 30.8513 3.66321C31.4568 4.03418 31.9658 4.54321 32.3368 5.14874C32.5521 5.49994 32.7581 6.05127 32.8753 7.28467C32.9969 8.56256 33 10.2369 33 12.75Z" fill="black"/>
</svg>
