<svg width="634" height="276" viewBox="0 0 634 276" fill="none" xmlns="http://www.w3.org/2000/svg">
<g clip-path="url(#clip0_151_15804)">
<path d="M36.4006 96.9049L582.477 16.5088L604.662 166.663L58.5863 247.059L36.4006 96.9049Z" fill="#E1C9ED" stroke="black" stroke-width="5.74275" stroke-linejoin="round"/>
<path d="M284.385 38.9941H24.8044C16.9308 38.9941 10.6818 46.8451 11.4317 55.6775L27.429 233.586C28.0539 240.876 33.4279 246.343 39.9268 246.343H299.507C307.381 246.343 313.63 238.492 312.88 229.66L296.883 51.7519C296.133 44.3215 290.884 38.9941 284.385 38.9941Z" fill="#FDF3E8" stroke="black" stroke-width="5.74275" stroke-miterlimit="10"/>
<path d="M121.991 168.897L108.477 172.645L111.605 178.016L120.114 177.641L124.369 175.767L121.991 168.897Z" fill="#FED5BD"/>
<path d="M294.276 38.9922H33.618C25.7117 38.9922 19.4368 46.6568 20.1898 55.4363L36.2534 230.052C36.8809 237.159 42.2773 242.594 48.8031 242.594H309.461C317.367 242.594 323.642 234.929 322.889 226.15L306.825 51.5344C306.072 44.2878 300.801 38.9922 294.276 38.9922Z" fill="#FDF3E8" stroke="black" stroke-width="5.74275" stroke-miterlimit="10"/>
<path d="M33.2646 58.4912L49.5319 234.303L311.686 238.057L294.793 58.4912H33.2646Z" fill="#FED42B" stroke="black" stroke-width="5.74275" stroke-linecap="round" stroke-linejoin="round"/>
<path d="M409.042 223.232H50.0352C42.7775 223.232 36.646 229.103 36.3957 236.348C36.1455 243.593 41.7764 249.463 49.0342 249.463H408.041C415.298 249.463 421.43 243.593 421.68 236.348C421.93 229.103 416.299 223.232 409.042 223.232Z" fill="#FDF3E8" stroke="black" stroke-width="5.74275" stroke-miterlimit="10"/>
<path d="M409.04 223.232H347.599H328.329H203.196C195.938 223.232 189.807 229.103 189.556 236.348C189.306 243.593 194.937 249.463 202.195 249.463H327.328H346.723H408.164C415.421 249.463 421.553 243.593 421.803 236.348C421.928 229.103 416.297 223.232 409.04 223.232Z" fill="#FDF3E8" stroke="black" stroke-width="5.74275" stroke-miterlimit="10"/>
<path d="M60.1712 236.348C60.2964 233.226 57.7937 230.728 54.7905 230.728C51.6622 230.728 49.0344 233.226 48.9093 236.348C48.7842 239.471 51.2868 241.969 54.29 241.969C57.4183 241.969 60.0461 239.471 60.1712 236.348Z" fill="#FDF3E8" stroke="black" stroke-width="5.74275" stroke-miterlimit="10"/>
<path d="M87.4496 236.348C87.5747 233.226 85.072 230.728 82.0688 230.728C78.9405 230.728 76.3127 233.226 76.1876 236.348C76.0625 239.471 78.5651 241.969 81.5683 241.969C84.6966 241.969 87.3244 239.471 87.4496 236.348Z" fill="#FDF3E8" stroke="black" stroke-width="5.74275" stroke-miterlimit="10"/>
<path d="M344.103 223.232H321.454H314.321H268.147C265.519 223.232 263.267 225.356 263.142 228.104C263.017 230.852 265.144 232.975 267.772 232.975H313.946H321.079H343.728C346.355 232.975 348.608 230.852 348.733 228.104C348.858 225.356 346.856 223.232 344.103 223.232Z" fill="#FDF3E8" stroke="black" stroke-width="5.74275" stroke-miterlimit="10"/>
<path d="M160.781 108.818C161.032 110.816 162.783 112.315 164.911 112.315H275.403C278.031 112.315 280.033 110.067 279.783 107.694L276.654 83.4614C276.404 81.4628 274.652 79.9639 272.525 79.9639H162.033C159.405 79.9639 157.403 82.2123 157.653 84.5856L160.781 108.818Z" fill="#FDF3E8" stroke="black" stroke-width="5.74275" stroke-miterlimit="10"/>
<path d="M174.672 91.0303H217.342" stroke="black" stroke-width="5.74275" stroke-miterlimit="10" stroke-linecap="round" stroke-linejoin="round"/>
<path d="M175.425 100.199H197.324" stroke="black" stroke-width="5.74275" stroke-miterlimit="10" stroke-linecap="round" stroke-linejoin="round"/>
<path d="M251.499 96.203L256.504 100.45L261.76 91.9561" fill="#FDF3E8"/>
<path d="M251.499 96.203L256.504 100.45L261.76 91.9561" stroke="black" stroke-width="5.74275" stroke-linecap="round" stroke-linejoin="round"/>
<path d="M166.282 149.288C166.533 151.286 168.284 152.785 170.412 152.785H280.904C283.532 152.785 285.534 150.537 285.284 148.163L282.155 123.931C281.905 121.933 280.153 120.434 278.026 120.434H167.534C164.906 120.434 162.904 122.682 163.154 125.055L166.282 149.288Z" fill="#FDF3E8" stroke="black" stroke-width="5.74275" stroke-miterlimit="10"/>
<path d="M183.053 131.5H225.724" stroke="black" stroke-width="5.74275" stroke-miterlimit="10" stroke-linecap="round" stroke-linejoin="round"/>
<path d="M183.798 140.669H205.696" stroke="black" stroke-width="5.74275" stroke-miterlimit="10" stroke-linecap="round" stroke-linejoin="round"/>
<path d="M256.632 136.672L261.637 140.919L267.018 132.3" fill="#FDF3E8"/>
<path d="M256.632 136.672L261.637 140.919L267.018 132.3" stroke="black" stroke-width="5.74275" stroke-linecap="round" stroke-linejoin="round"/>
<path d="M171.79 189.634C172.04 191.633 173.792 193.132 175.919 193.132H286.411C289.039 193.132 291.041 190.883 290.791 188.51L287.663 164.278C287.412 162.279 285.661 160.78 283.533 160.78H173.041C170.413 160.78 168.411 163.029 168.661 165.402L171.79 189.634Z" fill="#FDF3E8" stroke="black" stroke-width="5.74275" stroke-miterlimit="10"/>
<path d="M187.304 171.971H229.975" stroke="black" stroke-width="5.74275" stroke-miterlimit="10" stroke-linecap="round" stroke-linejoin="round"/>
<path d="M188.058 181.013H209.956" stroke="black" stroke-width="5.74275" stroke-miterlimit="10" stroke-linecap="round" stroke-linejoin="round"/>
<path d="M261.763 177.016L266.893 181.263L272.149 172.77" fill="#FDF3E8"/>
<path d="M261.763 177.016L266.893 181.263L272.149 172.77" stroke="black" stroke-width="5.74275" stroke-linecap="round" stroke-linejoin="round"/>
<path d="M141.256 120.934C139.004 99.3243 119.608 81.8369 97.96 81.8369C76.312 81.8369 60.5452 99.3243 62.9228 120.934C65.3003 142.543 84.5708 160.03 106.219 160.03C127.867 160.03 143.508 142.543 141.256 120.934Z" fill="#37AF80" stroke="black" stroke-width="5.74275" stroke-linejoin="round"/>
<path d="M461.997 57.3838L606.847 101.865L621.177 55.0801L476.328 10.5992L461.997 57.3838Z" fill="#BA9C80" stroke="black" stroke-width="5.09587" stroke-linejoin="round"/>
<path d="M447.667 104.168L592.516 148.649L606.847 101.864L461.997 57.3834L447.667 104.168Z" fill="#BA9C80" stroke="black" stroke-width="5.09587" stroke-linejoin="round"/>
<path d="M419.005 197.736L563.854 242.217L592.516 148.648L447.666 104.167L419.005 197.736Z" fill="#BA9C80" stroke="black" stroke-width="5.09587" stroke-linejoin="round"/>
<path d="M473.908 214.597L508.952 225.358L537.613 131.789L502.569 121.027L473.908 214.597Z" fill="#FED42B" stroke="black" stroke-width="5.09587" stroke-linejoin="round"/>
<path d="M502.569 121.027L537.613 131.789L566.274 38.2196L531.23 27.4581L502.569 121.027Z" fill="#FED42B" stroke="black" stroke-width="5.09587" stroke-linejoin="round"/>
<rect width="89.2148" height="72.1637" transform="matrix(0.998862 -0.0427811 0.0426926 0.999311 459.379 138.946)" fill="#29C489" stroke="black" stroke-width="5.09587" stroke-linecap="round" stroke-linejoin="round"/>
<path d="M495.164 179.29C501.61 184.991 510.455 184.612 516.391 178.381" stroke="black" stroke-width="5.09587" stroke-linecap="round" stroke-linejoin="round"/>
<ellipse cx="3.62093" cy="3.62387" rx="3.62093" ry="3.62387" transform="matrix(0.998862 -0.0427811 0.0426926 0.999311 485.422 161.709)" fill="black"/>
<ellipse cx="3.62093" cy="3.62387" rx="3.62093" ry="3.62387" transform="matrix(0.998862 -0.0427811 0.0426926 0.999311 501.686 167.602)" fill="black"/>
<ellipse cx="3.62093" cy="3.62387" rx="3.62093" ry="3.62387" transform="matrix(0.998862 -0.0427811 0.0426926 0.999311 517.682 160.327)" fill="black"/>
<path d="M345.612 110.707C345.612 110.707 371.014 122.449 372.265 123.198C373.516 123.947 362.63 227.497 362.63 227.497L353.62 230.62L332.473 206.138L307.321 191.898L296.184 166.916L298.061 152.302L345.612 110.707Z" fill="#FED5BD"/>
<path d="M352.996 100.341C356.25 96.7185 357.626 91.7221 357.001 86.9755C356.5 83.1033 355.624 78.3569 354.748 74.7345C350.994 60.4948 352.621 45.006 359.253 31.8906C361.005 28.2682 363.257 24.7707 367.011 23.1469C369.264 22.1476 372.017 22.0227 374.269 23.2718C378.523 25.6451 378.523 31.1411 378.398 35.6378C377.773 50.502 378.398 65.741 383.279 79.7309C386.532 89.3489 391.788 98.3423 395.041 107.96C395.041 108.085 395.166 108.21 395.166 108.335C398.795 118.827 400.297 129.819 399.921 140.936C399.671 148.556 400.171 158.549 403.675 165.169C404.176 166.168 405.177 167.042 406.053 167.917C421.901 183.515 443.476 203.86 467.092 223.002C467.092 223.002 423.905 234.244 388.039 272.549C374.595 255.477 360.561 235.758 352.246 225.75C352.246 225.75 345.113 218.38 337.48 216.007C329.847 213.634 321.838 211.26 314.455 208.887L313.329 208.637C306.197 206.764 299.439 203.891 293.183 200.018C289.554 197.77 286.551 194.023 284.924 189.526C284.549 188.527 284.173 187.528 283.923 186.528C281.42 179.284 290.43 160.797 292.432 158.673C295.56 155.301 300.065 153.552 304.695 153.927L339.607 157.05C341.734 156.925 343.736 158.174 344.988 160.172C346.364 162.296 346.615 164.919 345.739 167.292C344.738 170.29 342.861 172.788 340.483 174.412C339.232 175.286 337.98 175.786 336.479 176.161C331.599 177.285 321.338 179.658 308.449 177.41" fill="#FED5BD"/>
<path d="M352.996 100.341C356.25 96.7185 357.626 91.7221 357.001 86.9755C356.5 83.1033 355.624 78.3569 354.748 74.7345C350.994 60.4948 352.621 45.006 359.253 31.8906C361.005 28.2682 363.257 24.7707 367.011 23.1469C369.264 22.1476 372.017 22.0227 374.269 23.2718C378.523 25.6451 378.523 31.1411 378.398 35.6378C377.773 50.502 378.398 65.741 383.279 79.7309C386.532 89.3489 391.788 98.3423 395.041 107.96C395.041 108.085 395.166 108.21 395.166 108.335C398.795 118.827 400.297 129.819 399.921 140.936C399.671 148.556 400.171 158.549 403.675 165.169C404.176 166.168 405.177 167.042 406.053 167.917C421.901 183.515 443.476 203.86 467.092 223.002C467.092 223.002 423.905 234.244 388.039 272.549C374.595 255.477 360.561 235.758 352.246 225.75C352.246 225.75 345.113 218.38 337.48 216.007C329.847 213.634 321.838 211.26 314.455 208.887L313.329 208.637C306.197 206.764 299.439 203.891 293.183 200.018C289.554 197.77 286.551 194.023 284.924 189.526C284.549 188.527 284.173 187.528 283.923 186.528C281.42 179.284 290.43 160.797 292.432 158.673C295.56 155.301 300.065 153.552 304.695 153.927L339.607 157.05C341.734 156.925 343.736 158.174 344.988 160.172C346.364 162.296 346.615 164.919 345.739 167.292C344.738 170.29 342.861 172.788 340.483 174.412C339.232 175.286 337.98 175.786 336.479 176.161C331.599 177.285 321.338 179.658 308.449 177.41" stroke="black" stroke-width="5.74275" stroke-miterlimit="10" stroke-linecap="round" stroke-linejoin="round"/>
<path d="M299.567 155.175L287.178 147.431C282.298 144.433 278.544 139.562 276.292 133.566C275.791 132.317 275.416 130.943 274.915 129.694C272.288 122.074 277.293 100.715 283.55 90.2225C285.552 86.8499 289.431 84.9763 293.31 85.351L348.243 90.847C350.996 90.7221 353.624 92.2209 355.251 94.9689C357.003 97.7169 357.378 101.214 356.252 104.212C354.875 108.209 352.498 111.457 349.37 113.58C347.743 114.705 345.991 115.454 344.114 115.829C337.732 117.328 317.21 121.824 303.321 118.077" fill="#FED5BD"/>
<path d="M299.567 155.175L287.178 147.431C282.298 144.433 278.544 139.562 276.292 133.566C275.791 132.317 275.416 130.943 274.915 129.694C272.288 122.074 277.293 100.715 283.55 90.2225C285.552 86.8499 289.431 84.9763 293.31 85.351L348.243 90.847C350.996 90.7221 353.624 92.2209 355.251 94.9689C357.003 97.7169 357.378 101.214 356.252 104.212C354.875 108.209 352.498 111.457 349.37 113.58C347.743 114.705 345.991 115.454 344.114 115.829C337.732 117.328 317.21 121.824 303.321 118.077" stroke="black" stroke-width="5.74275" stroke-miterlimit="10" stroke-linecap="round" stroke-linejoin="round"/>
<path d="M297.44 177.659L285.052 169.914C280.172 166.916 276.418 162.045 274.165 156.049C273.665 154.8 273.289 153.426 272.789 152.177C270.161 144.558 275.166 123.198 281.423 112.706C283.425 109.333 287.304 107.46 291.183 107.834L346.117 113.33C348.87 113.206 351.498 114.704 353.124 117.452C354.876 120.2 355.252 123.698 354.125 126.696C352.749 130.693 350.371 133.94 347.243 136.064C345.616 137.188 343.864 137.938 341.987 138.312C335.606 139.811 315.084 144.308 301.194 140.561" fill="#FED5BD"/>
<path d="M297.44 177.659L285.052 169.914C280.172 166.916 276.418 162.045 274.165 156.049C273.665 154.8 273.289 153.426 272.789 152.177C270.161 144.558 275.166 123.198 281.423 112.706C283.425 109.333 287.304 107.46 291.183 107.834L346.117 113.33C348.87 113.206 351.498 114.704 353.124 117.452C354.876 120.2 355.252 123.698 354.125 126.696C352.749 130.693 350.371 133.94 347.243 136.064C345.616 137.188 343.864 137.938 341.987 138.312C335.606 139.811 315.084 144.308 301.194 140.561" stroke="black" stroke-width="5.74275" stroke-miterlimit="10" stroke-linecap="round" stroke-linejoin="round"/>
<path d="M299.065 195.271L287.553 188.151C283.048 185.403 279.544 180.781 277.417 175.285C277.042 174.161 276.541 172.912 276.166 171.663C273.788 164.543 278.418 144.807 284.174 135.064C286.051 131.942 289.555 130.193 293.184 130.568L344.113 135.689C346.615 135.564 349.118 137.063 350.62 139.436C352.246 142.059 352.622 145.182 351.621 148.055C350.369 151.802 348.117 154.8 345.239 156.799C343.737 157.798 342.111 158.547 340.359 158.922C334.478 160.421 315.457 164.543 302.444 161.046" fill="#FED5BD"/>
<path d="M299.065 195.271L287.553 188.151C283.048 185.403 279.544 180.781 277.417 175.285C277.042 174.161 276.541 172.912 276.166 171.663C273.788 164.543 278.418 144.807 284.174 135.064C286.051 131.942 289.555 130.193 293.184 130.568L344.113 135.689C346.615 135.564 349.118 137.063 350.62 139.436C352.246 142.059 352.622 145.182 351.621 148.055C350.369 151.802 348.117 154.8 345.239 156.799C343.737 157.798 342.111 158.547 340.359 158.922C334.478 160.421 315.457 164.543 302.444 161.046" stroke="black" stroke-width="5.74275" stroke-miterlimit="10" stroke-linecap="round" stroke-linejoin="round"/>
<path d="M322.588 211.385C319.71 210.511 316.957 209.636 314.204 208.762L313.078 208.512C305.946 206.639 299.188 203.766 292.932 199.893C289.303 197.645 286.3 193.898 284.673 189.401C284.298 188.402 283.922 187.403 283.672 186.403C281.169 179.159 290.179 160.672 292.181 158.549C295.309 155.176 299.814 153.427 304.444 153.802L339.356 156.925C341.483 156.8 343.486 158.049 344.737 160.047C346.113 162.171 346.364 164.794 345.488 167.167C344.487 170.165 342.61 172.663 340.232 174.287C338.981 175.161 337.729 175.661 336.228 176.036C331.348 177.16 321.087 179.533 308.198 177.285" fill="#FED5BD"/>
<path d="M322.588 211.385C319.71 210.511 316.957 209.636 314.204 208.762L313.078 208.512C305.946 206.639 299.188 203.766 292.932 199.893C289.303 197.645 286.3 193.898 284.673 189.401C284.298 188.402 283.922 187.403 283.672 186.403C281.169 179.159 290.179 160.672 292.181 158.549C295.309 155.176 299.814 153.427 304.444 153.802L339.356 156.925C341.483 156.8 343.486 158.049 344.737 160.047C346.113 162.171 346.364 164.794 345.488 167.167C344.487 170.165 342.61 172.663 340.232 174.287C338.981 175.161 337.729 175.661 336.228 176.036C331.348 177.16 321.087 179.533 308.198 177.285" stroke="black" stroke-width="5.74275" stroke-miterlimit="10" stroke-linecap="round" stroke-linejoin="round"/>
</g>
<defs>
<clipPath id="clip0_151_15804">
<rect width="634" height="276" fill="white"/>
</clipPath>
</defs>
</svg>
