<svg width="32" height="31" viewBox="0 0 32 31" fill="none" xmlns="http://www.w3.org/2000/svg">
<path fill-rule="evenodd" clip-rule="evenodd" d="M26.2631 0.714395L31.2424 0.161133L30.6892 5.14049C30.1776 9.74442 28.1144 14.0372 24.8389 17.3127L21.4075 20.7614C22.6293 21.9832 22.8188 23.8974 21.8604 25.335L18.9788 29.6574C18.2787 30.7075 16.7929 30.8546 15.9005 29.9622L13.9035 27.9652L14.4692 24.0054L7.39813 16.9344L3.43833 17.5001L1.44135 15.5031C0.548916 14.6106 0.696043 13.1248 1.74617 12.4248L6.06858 9.54315C7.50617 8.58475 9.4204 8.7743 10.6421 9.99603L14.0909 6.56464C17.3664 3.28914 21.6591 1.22594 26.2631 0.714395ZM28.3038 4.87546L28.5258 2.87775L26.5281 3.09972C22.4658 3.55108 18.6781 5.37155 15.788 8.2617L12.3566 11.6931C11.4145 12.6351 9.88713 12.6351 8.94507 11.6931C8.5323 11.2803 7.88556 11.2163 7.39986 11.5401L3.48342 14.151L4.28686 14.9545L8.24666 14.3888L17.0148 23.1569L16.4491 27.1167L17.2525 27.9201L19.8635 24.0037C20.1873 23.518 20.1233 22.8713 19.7105 22.4585C18.7684 21.5164 18.7684 19.9891 19.7105 19.047L23.1419 15.6156C26.032 12.7255 27.8525 8.93774 28.3038 4.87546Z" fill="white"/>
<path d="M7.07116 19.8541L4.28971 27.1612L11.5969 24.3793L7.07116 19.8541Z" fill="white"/>
</svg>
