<svg width="26" height="21" viewBox="0 0 26 21" fill="none" xmlns="http://www.w3.org/2000/svg">
<path d="M0 1.83671V6.5625H2.60013V2.625H6.50032V0H1.82009C1.33765 0.000486068 0.875105 0.194127 0.533899 0.53845C0.192693 0.882772 0.000688264 1.34966 0 1.83671Z" fill="black"/>
<path d="M26 1.83671C25.9993 1.34966 25.8073 0.882772 25.4661 0.53845C25.1249 0.194127 24.6623 0.000486068 24.1799 0H19.4997V2.625H23.3999V6.5625H26V1.83671Z" fill="black"/>
<path d="M23.3999 14.4375H26V19.1625C25.9995 19.6497 25.8075 20.1167 25.4663 20.4612C25.1251 20.8057 24.6625 20.9994 24.1799 21H19.4997V18.375H23.3999V14.4375Z" fill="black"/>
<path d="M0 19.1625C0.000550541 19.6497 0.192486 20.1167 0.5337 20.4612C0.874914 20.8057 1.33754 20.9994 1.82009 21H6.50032V18.375H2.60013V14.4375H0V19.1625Z" fill="black"/>
<path d="M5.19644 5.24619H7.79657V15.7462H5.19644V5.24619Z" fill="black"/>
<path d="M14.2982 5.24619H11.698V15.7462H14.2982V5.24619Z" fill="black"/>
<path d="M18.1971 5.24619H20.7972V15.7462H18.1971V5.24619Z" fill="black"/>
<path d="M10.3975 5.2466H9.09743V15.7466H10.3975V5.2466Z" fill="black"/>
<path d="M15.5995 5.2466H16.8996V15.7466H15.5995V5.2466Z" fill="black"/>
</svg>
