<svg width="40" height="40" viewBox="0 0 40 40" fill="none" xmlns="http://www.w3.org/2000/svg">
<path d="M32 12.5H27.5V15.5H32V12.5Z" fill="black"/>
<path d="M8 18.5H12.5V21.5H8V18.5Z" fill="black"/>
<path d="M26 27.5V24.5H14V27.5H26Z" fill="black"/>
<path d="M18.5 18.5H14V21.5H18.5V18.5Z" fill="black"/>
<path d="M24.5 18.5H20V21.5H24.5V18.5Z" fill="black"/>
<path d="M32 18.5H26V21.5H32V18.5Z" fill="black"/>
<path d="M20 12.5H15.5V15.5H20V12.5Z" fill="black"/>
<path d="M14 12.5H8V15.5H14V12.5Z" fill="black"/>
<path d="M26 12.5H21.5V15.5H26V12.5Z" fill="black"/>
<path fill-rule="evenodd" clip-rule="evenodd" d="M25.25 5C30.1602 5 32.6152 5 34.4188 6.10522C35.4279 6.72357 36.2764 7.57208 36.8948 8.58118C38 10.3848 38 12.8398 38 17.75V22.25C38 27.1602 38 29.6152 36.8948 31.4188C36.2764 32.4279 35.4279 33.2764 34.4188 33.8948C32.6152 35 30.1602 35 25.25 35H14.75C9.83984 35 7.38477 35 5.58118 33.8948C4.57208 33.2764 3.72357 32.4279 3.10522 31.4188C2 29.6152 2 27.1602 2 22.25V17.75C2 12.8398 2 10.3848 3.10522 8.58118C3.72357 7.57208 4.57208 6.72357 5.58118 6.10522C7.38477 5 9.83984 5 14.75 5H25.25ZM35 17.75V22.25C35 24.7631 34.9969 26.4374 34.8753 27.7153C34.7581 28.9487 34.5521 29.5001 34.3368 29.8513C33.9658 30.4568 33.4568 30.9658 32.8513 31.3368C32.5001 31.5521 31.9487 31.7581 30.7153 31.8753C29.4374 31.9969 27.7631 32 25.25 32H14.75C12.2369 32 10.5626 31.9969 9.28467 31.8753C8.05127 31.7581 7.49994 31.5521 7.14874 31.3368C6.54321 30.9658 6.03418 30.4568 5.66321 29.8513C5.44788 29.5001 5.24188 28.9487 5.12469 27.7153C5.00311 26.4374 5 24.7631 5 22.25V17.75C5 15.2369 5.00311 13.5626 5.12469 12.2847C5.24188 11.0513 5.44788 10.4999 5.66321 10.1487C6.03418 9.54321 6.54321 9.03418 7.14874 8.66321C7.49994 8.44788 8.05127 8.24188 9.28467 8.12469C10.5626 8.00311 12.2369 8 14.75 8H25.25C27.7631 8 29.4374 8.00311 30.7153 8.12469C31.9487 8.24188 32.5001 8.44788 32.8513 8.66321C33.4568 9.03418 33.9658 9.54321 34.3368 10.1487C34.5521 10.4999 34.7581 11.0513 34.8753 12.2847C34.9969 13.5626 35 15.2369 35 17.75Z" fill="black"/>
</svg>
