<svg width="54" height="15" viewBox="0 0 54 15" fill="none" xmlns="http://www.w3.org/2000/svg">
<path d="M10.34 15H0.92V12.7C2.14667 11.7533 3.19333 10.92 4.06 10.2C4.92667 9.48 5.63333 8.82 6.18 8.22C6.74 7.60667 7.14667 7.03333 7.4 6.5C7.65333 5.96667 7.78 5.40667 7.78 4.82C7.78 4.1 7.56 3.52667 7.12 3.1C6.69333 2.67333 6.08 2.46 5.28 2.46C4.52 2.46 3.80667 2.62667 3.14 2.96C2.48667 3.29333 1.88 3.73333 1.32 4.28V1.98C1.85333 1.51333 2.45333 1.14667 3.12 0.879999C3.78667 0.599999 4.58667 0.459999 5.52 0.459999C6.25333 0.459999 6.90667 0.559999 7.48 0.76C8.06667 0.96 8.56667 1.24667 8.98 1.62C9.39333 1.98 9.70667 2.42667 9.92 2.96C10.1467 3.48 10.26 4.06667 10.26 4.72C10.26 5.45333 10.1133 6.14 9.82 6.78C9.52667 7.42 9.09333 8.06 8.52 8.7C7.96 9.34 7.25333 10.0067 6.4 10.7C5.56 11.38 4.58667 12.1333 3.48 12.96H10.34V15ZM20.1817 11.76V15H17.8817V11.76H11.2017V10.02L17.5217 0.66H20.1817V9.82H22.0217V11.76H20.1817ZM17.8817 9.82V3.32L13.5017 9.82H17.8817ZM28.4488 8.04L27.1488 5.66L25.8288 8.04L24.1288 6.78L25.9888 4.78L23.3288 4.26L23.9688 2.24L26.4088 3.38L26.0688 0.66H28.1888L27.8288 3.4L30.2888 2.24L30.9288 4.26L28.2688 4.76L30.1288 6.78L28.4488 8.04ZM41.8298 15H32.4098V12.7C33.6365 11.7533 34.6832 10.92 35.5498 10.2C36.4165 9.48 37.1232 8.82 37.6698 8.22C38.2298 7.60667 38.6365 7.03333 38.8898 6.5C39.1432 5.96667 39.2698 5.40667 39.2698 4.82C39.2698 4.1 39.0498 3.52667 38.6098 3.1C38.1832 2.67333 37.5698 2.46 36.7698 2.46C36.0098 2.46 35.2965 2.62667 34.6298 2.96C33.9765 3.29333 33.3698 3.73333 32.8098 4.28V1.98C33.3432 1.51333 33.9432 1.14667 34.6098 0.879999C35.2765 0.599999 36.0765 0.459999 37.0098 0.459999C37.7432 0.459999 38.3965 0.559999 38.9698 0.76C39.5565 0.96 40.0565 1.24667 40.4698 1.62C40.8832 1.98 41.1965 2.42667 41.4098 2.96C41.6365 3.48 41.7498 4.06667 41.7498 4.72C41.7498 5.45333 41.6032 6.14 41.3098 6.78C41.0165 7.42 40.5832 8.06 40.0098 8.7C39.4498 9.34 38.7432 10.0067 37.8898 10.7C37.0498 11.38 36.0765 12.1333 34.9698 12.96H41.8298V15ZM51.6716 11.76V15H49.3716V11.76H42.6916V10.02L49.0116 0.66H51.6716V9.82H53.5116V11.76H51.6716ZM49.3716 9.82V3.32L44.9916 9.82H49.3716Z" fill="#ABABAB"/>
</svg>
