<svg width="60" height="16" viewBox="0 0 60 16" fill="none" xmlns="http://www.w3.org/2000/svg">
<path d="M9.62 11.76V15H7.32V11.76H0.64V10.02L6.96 0.66H9.62V9.82H11.46V11.76H9.62ZM7.32 9.82V3.32L2.94 9.82H7.32ZM18.847 15.2C18.0204 15.2 17.247 15.0467 16.527 14.74C15.807 14.42 15.1804 13.9533 14.647 13.34C14.1137 12.7267 13.6937 11.96 13.387 11.04C13.0804 10.12 12.927 9.04667 12.927 7.82C12.927 6.60667 13.0804 5.54 13.387 4.62C13.6937 3.7 14.1137 2.93333 14.647 2.32C15.1804 1.70667 15.807 1.24667 16.527 0.94C17.247 0.633333 18.0204 0.48 18.847 0.48C19.6737 0.48 20.4404 0.633333 21.147 0.94C21.867 1.24667 22.4937 1.70667 23.027 2.32C23.5604 2.92 23.9737 3.68 24.267 4.6C24.5737 5.50667 24.727 6.56667 24.727 7.78C24.727 8.99333 24.5737 10.06 24.267 10.98C23.9737 11.9 23.5604 12.6733 23.027 13.3C22.4937 13.9267 21.867 14.4 21.147 14.72C20.4404 15.04 19.6737 15.2 18.847 15.2ZM18.827 13.26C19.3204 13.26 19.7804 13.1667 20.207 12.98C20.6337 12.78 21.0004 12.4667 21.307 12.04C21.627 11.6133 21.8737 11.06 22.047 10.38C22.2337 9.68667 22.327 8.84 22.327 7.84C22.327 6.84 22.2337 6 22.047 5.32C21.8737 4.62667 21.627 4.06667 21.307 3.64C21.0004 3.2 20.6337 2.88667 20.207 2.7C19.7804 2.5 19.327 2.4 18.847 2.4C18.3537 2.4 17.8937 2.5 17.467 2.7C17.0404 2.88667 16.667 3.2 16.347 3.64C16.0404 4.06667 15.7937 4.62667 15.607 5.32C15.4337 6 15.347 6.84 15.347 7.84C15.347 8.84 15.4337 9.68667 15.607 10.38C15.7937 11.06 16.0404 11.6133 16.347 12.04C16.667 12.4667 17.0404 12.78 17.467 12.98C17.8937 13.1667 18.347 13.26 18.827 13.26ZM31.3198 8.04L30.0198 5.66L28.6998 8.04L26.9998 6.78L28.8598 4.78L26.1998 4.26L26.8398 2.24L29.2798 3.38L28.9398 0.66H31.0598L30.6998 3.4L33.1598 2.24L33.7998 4.26L31.1398 4.76L32.9998 6.78L31.3198 8.04ZM43.9809 11.76V15H41.6809V11.76H35.0009V10.02L41.3209 0.66H43.9809V9.82H45.8209V11.76H43.9809ZM41.6809 9.82V3.32L37.3009 9.82H41.6809ZM53.208 15.2C52.3813 15.2 51.608 15.0467 50.888 14.74C50.168 14.42 49.5413 13.9533 49.008 13.34C48.4746 12.7267 48.0546 11.96 47.748 11.04C47.4413 10.12 47.288 9.04667 47.288 7.82C47.288 6.60667 47.4413 5.54 47.748 4.62C48.0546 3.7 48.4746 2.93333 49.008 2.32C49.5413 1.70667 50.168 1.24667 50.888 0.94C51.608 0.633333 52.3813 0.48 53.208 0.48C54.0346 0.48 54.8013 0.633333 55.508 0.94C56.228 1.24667 56.8546 1.70667 57.388 2.32C57.9213 2.92 58.3346 3.68 58.628 4.6C58.9346 5.50667 59.088 6.56667 59.088 7.78C59.088 8.99333 58.9346 10.06 58.628 10.98C58.3346 11.9 57.9213 12.6733 57.388 13.3C56.8546 13.9267 56.228 14.4 55.508 14.72C54.8013 15.04 54.0346 15.2 53.208 15.2ZM53.188 13.26C53.6813 13.26 54.1413 13.1667 54.568 12.98C54.9946 12.78 55.3613 12.4667 55.668 12.04C55.988 11.6133 56.2346 11.06 56.408 10.38C56.5946 9.68667 56.688 8.84 56.688 7.84C56.688 6.84 56.5946 6 56.408 5.32C56.2346 4.62667 55.988 4.06667 55.668 3.64C55.3613 3.2 54.9946 2.88667 54.568 2.7C54.1413 2.5 53.688 2.4 53.208 2.4C52.7146 2.4 52.2546 2.5 51.828 2.7C51.4013 2.88667 51.028 3.2 50.708 3.64C50.4013 4.06667 50.1546 4.62667 49.968 5.32C49.7946 6 49.708 6.84 49.708 7.84C49.708 8.84 49.7946 9.68667 49.968 10.38C50.1546 11.06 50.4013 11.6133 50.708 12.04C51.028 12.4667 51.4013 12.78 51.828 12.98C52.2546 13.1667 52.708 13.26 53.188 13.26Z" fill="#ABABAB"/>
</svg>
