<svg width="634" height="276" viewBox="0 0 634 276" fill="none" xmlns="http://www.w3.org/2000/svg">
<g clip-path="url(#clip0_151_15894)">
<path d="M121.316 64.6989L403.5 8L411.84 113.057L126.986 270.469L121.316 64.6989Z" fill="#E1C9ED" stroke="black" stroke-width="6" stroke-linejoin="round"/>
<path d="M532 80.956L494.13 23.4404L403.5 8L401 141.56L530.5 156L532 80.956Z" fill="white" stroke="black" stroke-width="6" stroke-linejoin="round"/>
<path d="M530.5 155.999L343.096 258.463L322.5 270.136L127 271L416.133 107.387L530.5 155.999Z" fill="#A8A8A8" stroke="black" stroke-width="6" stroke-linejoin="round"/>
<path d="M387 18.6399V161.063L293.333 198L265 164.391L257 22.9659L347 3L387 18.6399Z" fill="#FED42B"/>
<path d="M286.333 43.93L387 18.6399M286.333 43.93L293.333 198M286.333 43.93L257 22.9659M387 18.6399V161.063L293.333 198M387 18.6399L347 3L257 22.9659M293.333 198L265 164.391L257 22.9659" stroke="black" stroke-width="6"/>
<path d="M399.763 78.3867L496.378 108.018L505.936 76.8521L409.321 47.2206L399.763 78.3867Z" fill="#BA9C80" stroke="black" stroke-width="6" stroke-linejoin="round"/>
<path d="M390.204 109.553L486.819 139.184L496.378 108.018L399.763 78.3866L390.204 109.553Z" fill="#BA9C80" stroke="black" stroke-width="6" stroke-linejoin="round"/>
<path d="M371.087 171.887L467.702 201.518L486.819 139.186L390.204 109.554L371.087 171.887Z" fill="#BA9C80" stroke="black" stroke-width="6" stroke-linejoin="round"/>
<path d="M407.707 183.117L431.082 190.286L450.199 127.954L426.824 120.785L407.707 183.117Z" fill="#FED42B" stroke="black" stroke-width="6" stroke-linejoin="round"/>
<path d="M426.824 120.785L450.199 127.954L469.316 65.6217L445.941 58.4528L426.824 120.785Z" fill="#FED42B" stroke="black" stroke-width="6" stroke-linejoin="round"/>
<path d="M372.213 69.6939C375.85 82.4861 365.624 97.7935 347.454 102.96C329.283 108.126 312.534 100.489 308.896 87.6969C305.259 74.9048 315.485 59.5973 333.655 54.4308C351.826 49.2643 368.576 56.9017 372.213 69.6939Z" fill="#29C489" stroke="black" stroke-width="6"/>
<path d="M332.681 123.76C333.573 126.897 331.614 130.545 327.791 131.631C323.968 132.718 320.383 130.648 319.491 127.51C318.599 124.373 320.559 120.726 324.381 119.639C328.204 118.552 331.789 120.623 332.681 123.76Z" fill="#E1C9ED" stroke="black" stroke-width="6"/>
<path d="M359.363 129.096C360.255 132.233 358.295 135.88 354.473 136.967C350.65 138.054 347.065 135.984 346.173 132.846C345.281 129.709 347.24 126.062 351.063 124.975C354.886 123.888 358.471 125.959 359.363 129.096Z" fill="#E1C9ED" stroke="black" stroke-width="6"/>
<path d="M378.038 110.42C378.93 113.557 376.97 117.205 373.147 118.292C369.325 119.378 365.74 117.308 364.848 114.171C363.956 111.034 365.915 107.386 369.738 106.299C373.56 105.212 377.146 107.283 378.038 110.42Z" fill="#E1C9ED" stroke="black" stroke-width="6"/>
<path d="M323 164.683L272.202 85.0263L169 57V247L322.5 270L323 164.683Z" fill="white" stroke="black" stroke-width="6" stroke-linejoin="round"/>
<path d="M395.489 159.772C395.489 159.772 413.219 165.594 414.106 165.994C414.992 166.394 415.707 235.753 415.707 235.753L409.976 238.51L394.09 223.93L376.334 216.435L367.043 200.757L367.167 190.942L395.489 159.772Z" fill="#FED5BD"/>
<path d="M399.588 152.346C401.466 149.699 401.996 146.287 401.218 143.194C400.59 140.67 399.646 137.596 398.788 135.266C395.211 126.131 395.103 115.757 398.493 106.569C399.376 104.038 400.601 101.551 402.964 100.188C404.38 99.3543 406.194 99.0605 407.782 99.7145C410.783 100.959 411.204 104.596 411.465 107.581C412.189 117.465 413.77 127.502 418.074 136.386C420.966 142.501 425.137 148.049 428.029 154.165C428.039 154.247 428.131 154.32 428.141 154.403C431.349 161.068 433.185 168.227 433.787 175.612C434.205 180.674 435.302 187.248 438.13 191.361C438.538 191.983 439.268 192.485 439.916 192.997C451.611 202.104 467.464 213.913 484.577 224.77C484.577 224.77 456.822 235.52 435.99 263.618C425.776 253.351 414.967 241.378 408.692 235.392C408.692 235.392 403.401 231.062 398.162 230.077C392.923 229.091 387.435 228.135 382.361 227.13L381.596 227.051C376.727 226.358 372.03 224.975 367.588 222.892C365.011 221.682 362.734 219.433 361.312 216.582C360.987 215.95 360.662 215.317 360.419 214.675C358.207 210.073 362.761 197.148 363.925 195.59C365.739 193.118 368.59 191.616 371.687 191.509L395.058 190.899C396.458 190.653 397.88 191.326 398.862 192.553C399.937 193.853 400.303 195.569 399.905 197.207C399.471 199.267 398.419 201.064 396.968 202.321C396.205 202.996 395.415 203.422 394.448 203.785C391.301 204.903 384.684 207.261 375.972 206.761" fill="#FED5BD"/>
<path d="M399.588 152.346C401.466 149.699 401.996 146.287 401.218 143.194C400.59 140.67 399.646 137.596 398.788 135.266C395.211 126.131 395.103 115.757 398.493 106.569C399.376 104.038 400.601 101.551 402.964 100.188C404.38 99.3543 406.194 99.0605 407.782 99.7145C410.783 100.959 411.204 104.596 411.465 107.581C412.189 117.465 413.77 127.502 418.074 136.386C420.966 142.501 425.137 148.049 428.029 154.165C428.039 154.247 428.131 154.32 428.141 154.403C431.349 161.068 433.185 168.227 433.787 175.612C434.205 180.674 435.302 187.248 438.13 191.361C438.538 191.983 439.268 192.485 439.916 192.997C451.611 202.104 467.464 213.913 484.577 224.77C484.577 224.77 456.822 235.52 435.99 263.618C425.776 253.351 414.967 241.378 408.692 235.392C408.692 235.392 403.401 231.062 398.162 230.077C392.923 229.091 387.435 228.135 382.361 227.13L381.596 227.051C376.727 226.358 372.03 224.975 367.588 222.892C365.011 221.682 362.734 219.433 361.312 216.582C360.987 215.949 360.662 215.317 360.419 214.675C358.207 210.073 362.761 197.148 363.925 195.59C365.739 193.118 368.59 191.616 371.687 191.509L395.058 190.899C396.458 190.653 397.88 191.326 398.862 192.553C399.937 193.853 400.303 195.569 399.905 197.207C399.471 199.267 398.419 201.064 396.968 202.321C396.205 202.996 395.415 203.422 394.448 203.785C391.301 204.903 384.684 207.261 375.972 206.761" stroke="black" stroke-width="6" stroke-miterlimit="10" stroke-linecap="round" stroke-linejoin="round"/>
<path d="M368.384 192.728L359.583 188.553C356.12 186.944 353.26 184.008 351.308 180.213C350.881 179.424 350.527 178.544 350.1 177.756C347.775 172.915 349.457 158.397 352.799 150.974C353.867 148.589 356.294 147.051 358.893 147.002L395.712 146.428C397.526 146.134 399.382 146.925 400.67 148.618C402.041 150.303 402.558 152.588 402.041 154.658C401.435 157.409 400.109 159.74 398.198 161.385C397.207 162.254 396.103 162.884 394.888 163.276C390.775 164.757 377.521 169.306 368.031 167.891" fill="#FED5BD"/>
<path d="M368.384 192.728L359.583 188.553C356.12 186.944 353.26 184.008 351.308 180.213C350.881 179.424 350.527 178.544 350.1 177.756C347.775 172.915 349.457 158.397 352.799 150.974C353.867 148.589 356.294 147.051 358.893 147.002L395.712 146.428C397.526 146.134 399.382 146.925 400.67 148.618C402.041 150.303 402.558 152.588 402.041 154.658C401.435 157.409 400.109 159.74 398.198 161.385C397.207 162.254 396.103 162.884 394.888 163.276C390.775 164.757 377.521 169.306 368.031 167.891" stroke="black" stroke-width="6" stroke-miterlimit="10" stroke-linecap="round" stroke-linejoin="round"/>
<path d="M368.697 207.77L359.896 203.594C356.433 201.985 353.572 199.049 351.621 195.254C351.194 194.465 350.84 193.585 350.412 192.797C348.088 187.956 349.769 173.438 353.111 166.015C354.18 163.63 356.607 162.092 359.205 162.043L396.024 161.469C397.839 161.175 399.695 161.966 400.983 163.659C402.354 165.344 402.87 167.629 402.354 169.699C401.748 172.45 400.421 174.781 398.511 176.426C397.519 177.295 396.416 177.925 395.201 178.317C391.087 179.798 377.834 184.347 368.344 182.932" fill="#FED5BD"/>
<path d="M368.697 207.77L359.896 203.594C356.433 201.985 353.572 199.049 351.621 195.254C351.194 194.465 350.84 193.585 350.412 192.797C348.088 187.956 349.769 173.438 353.111 166.015C354.18 163.63 356.607 162.092 359.205 162.043L396.024 161.469C397.839 161.175 399.695 161.966 400.983 163.659C402.354 165.344 402.87 167.629 402.354 169.699C401.748 172.45 400.421 174.781 398.511 176.426C397.519 177.295 396.416 177.925 395.201 178.317C391.087 179.798 377.834 184.347 368.344 182.932" stroke="black" stroke-width="6" stroke-miterlimit="10" stroke-linecap="round" stroke-linejoin="round"/>
<path d="M371.122 219.298L362.949 215.469C359.754 213.996 357.078 211.206 355.248 207.732C354.913 207.017 354.486 206.229 354.142 205.431C352.021 200.902 353.578 187.487 356.646 180.598C357.651 178.388 359.838 176.962 362.271 176.932L396.408 176.417C398.057 176.142 399.83 176.942 401.007 178.398C402.285 180.009 402.773 182.046 402.33 184.024C401.787 186.6 400.525 188.756 398.771 190.3C397.852 191.076 396.832 191.697 395.7 192.079C391.918 193.522 379.631 197.707 370.74 196.391" fill="#FED5BD"/>
<path d="M371.122 219.298L362.949 215.469C359.754 213.996 357.078 211.206 355.248 207.732C354.913 207.017 354.486 206.229 354.142 205.431C352.021 200.902 353.578 187.487 356.646 180.598C357.651 178.388 359.838 176.962 362.271 176.932L396.408 176.417C398.057 176.142 399.83 176.942 401.007 178.398C402.285 180.009 402.773 182.046 402.33 184.024C401.787 186.6 400.525 188.756 398.771 190.3C397.852 191.076 396.832 191.697 395.7 192.079C391.918 193.522 379.631 197.707 370.74 196.391" stroke="black" stroke-width="6" stroke-miterlimit="10" stroke-linecap="round" stroke-linejoin="round"/>
<path d="M387.941 228.159C385.968 227.801 384.077 227.434 382.186 227.066L381.42 226.987C376.551 226.294 371.854 224.911 367.412 222.828C364.835 221.618 362.558 219.369 361.136 216.518C360.811 215.885 360.486 215.253 360.244 214.611C358.031 210.008 362.585 197.084 363.749 195.526C365.563 193.054 368.414 191.551 371.511 191.444L394.882 190.835C396.282 190.589 397.704 191.262 398.686 192.489C399.761 193.788 400.128 195.505 399.729 197.143C399.295 199.203 398.243 201 396.792 202.257C396.03 202.932 395.239 203.358 394.272 203.721C391.125 204.839 384.508 207.196 375.796 206.697" fill="#FED5BD"/>
<path d="M387.941 228.159C385.968 227.801 384.077 227.434 382.186 227.066L381.42 226.987C376.551 226.294 371.854 224.911 367.412 222.828C364.835 221.618 362.558 219.369 361.136 216.518C360.811 215.885 360.486 215.253 360.244 214.611C358.031 210.008 362.585 197.084 363.749 195.526C365.563 193.054 368.414 191.551 371.511 191.444L394.882 190.835C396.282 190.589 397.704 191.262 398.686 192.489C399.761 193.788 400.128 195.505 399.729 197.143C399.295 199.203 398.243 201 396.792 202.257C396.03 202.932 395.239 203.358 394.272 203.721C391.125 204.839 384.508 207.196 375.796 206.697" stroke="black" stroke-width="6" stroke-miterlimit="10" stroke-linecap="round" stroke-linejoin="round"/>
</g>
<defs>
<clipPath id="clip0_151_15894">
<rect width="634" height="276" fill="white"/>
</clipPath>
</defs>
</svg>
