<svg width="40" height="40" viewBox="0 0 40 40" fill="none" xmlns="http://www.w3.org/2000/svg">
<path d="M17.4995 10.8333C17.4995 9.45257 18.6188 8.33328 19.9995 8.33328C21.3802 8.33328 22.4995 9.45257 22.4995 10.8333C22.4995 12.214 21.3802 13.3333 19.9995 13.3333C18.6188 13.3333 17.4995 12.214 17.4995 10.8333ZM17.4995 19.9999C17.4995 18.6192 18.6188 17.4999 19.9995 17.4999C21.3802 17.4999 22.4995 18.6192 22.4995 19.9999C22.4995 21.3807 21.3802 22.4999 19.9995 22.4999C18.6188 22.4999 17.4995 21.3807 17.4995 19.9999ZM19.9995 26.6666C18.6188 26.6666 17.4995 27.7859 17.4995 29.1666C17.4995 30.5473 18.6188 31.6666 19.9995 31.6666C21.3802 31.6666 22.4995 30.5473 22.4995 29.1666C22.4995 27.7859 21.3802 26.6666 19.9995 26.6666Z" fill="black"/>
</svg>
